<?xml version="1.0" encoding="utf-8"?>
<!-- Generator: Adobe Illustrator 26.5.0, SVG Export Plug-In . SVG Version: 6.00 Build 0)  -->
<svg version="1.1" id="Calque_1" xmlns="http://www.w3.org/2000/svg" xmlns:xlink="http://www.w3.org/1999/xlink" x="0px" y="0px"
	 viewBox="0 0 48 43" style="enable-background:new 0 0 48 43;" xml:space="preserve">
<path d="M44,4.2c-1.3-1.3-2.8-2.3-4.4-3c-1.7-0.7-3.4-1-5.2-1c-1.8,0-3.6,0.3-5.2,1c-1.7,0.7-3.2,1.7-4.4,3L24,5l-0.8-0.8
	c-2.6-2.6-6-4-9.6-4c-3.6,0-7.1,1.4-9.6,4C1.4,6.8,0,10.3,0,13.9c0,3.6,1.4,7.1,3.9,9.6l18.6,18.7c0.4,0.4,0.9,0.6,1.5,0.6
	c0.5,0,1.1-0.2,1.5-0.6l18.6-18.7c2.5-2.6,3.9-6,3.9-9.7C48,10.3,46.6,6.8,44,4.2z"/>
</svg>
