<?xml version="1.0" encoding="utf-8"?>
<!-- Generator: Adobe Illustrator 26.5.0, SVG Export Plug-In . SVG Version: 6.00 Build 0)  -->
<svg version="1.1" id="Calque_1" xmlns="http://www.w3.org/2000/svg" xmlns:xlink="http://www.w3.org/1999/xlink" x="0px" y="0px"
	 viewBox="0 0 31 48" style="enable-background:new 0 0 31 48;" xml:space="preserve">
<path d="M21.5,6c0,3.3-2.7,6-6,6s-6-2.7-6-6s2.7-6,6-6S21.5,2.7,21.5,6z"/>
<path d="M30,22l-7.8-7.9c-1.3-1.3-3-2.1-4.9-2.1H14c0,0,0,0,0,0c-1.9,0-3.7,0.8-5,2.1L1.3,22c-0.6,0.4-1.1,1.1-1.1,1.9
	c0,1.2,1,2.2,2.2,2.2c0.8,0,1.5-0.4,1.9-1.1l5.4-5.4V48h4.5V33h3v15h4.5V19.6l5.2,5.4c0.4,0.5,1,0.9,1.7,0.9c1.2,0,2.2-1,2.2-2.2
	C30.8,23,30.5,22.4,30,22L30,22z"/>
</svg>
