<?xml version="1.0" encoding="utf-8"?>
<!-- Generator: Adobe Illustrator 26.5.0, SVG Export Plug-In . SVG Version: 6.00 Build 0)  -->
<svg version="1.1" id="Calque_1" xmlns="http://www.w3.org/2000/svg" xmlns:xlink="http://www.w3.org/1999/xlink" x="0px" y="0px"
	 viewBox="0 0 48 48" style="enable-background:new 0 0 48 48;" xml:space="preserve">
<path d="M46.6,8.9c-2.9-1.2-5.8-1.7-8.7-1.7c-9.2,0-18.5,4.7-27.7,4.7c-2.3,0-4.6-0.3-6.9-1c-0.3-0.1-0.5-0.1-0.8-0.1
	c-1.3,0-2.4,1-2.4,2.4v23.8c0,0.9,0.5,1.8,1.4,2.2c2.9,1.2,5.8,1.7,8.7,1.7c9.2,0,18.5-4.7,27.7-4.7c2.3,0,4.6,0.3,6.9,1
	c0.3,0.1,0.5,0.1,0.8,0.1c1.3,0,2.4-1,2.4-2.4V11.1C48,10.1,47.5,9.2,46.6,8.9L46.6,8.9z M3.6,14.7c1.5,0.4,3.1,0.6,4.7,0.7
	c-0.4,2.2-2.4,3.9-4.7,3.9V14.7z M3.6,36.1v-3.6c2.6,0,4.7,2,4.8,4.6C6.7,37,5.1,36.6,3.6,36.1z M24,31.2c-3.3,0-6-3.2-6-7.2
	c0-4,2.7-7.2,6-7.2s6,3.2,6,7.2C30,28,27.3,31.2,24,31.2z M44.4,33.3c-1.3-0.3-2.7-0.5-4.1-0.6c0.4-2,2.1-3.4,4.1-3.7V33.3z
	 M44.4,15.6c-2.3-0.3-4.1-2.2-4.2-4.6c1.5,0.2,2.9,0.5,4.2,0.9V15.6z"/>
</svg>
