<?xml version="1.0" encoding="utf-8"?>
<svg xmlns="http://www.w3.org/2000/svg">
<symbol id="dog" viewBox="0 0 48 48">
<path d="M24.9,19.5l14.1,5V45c0,0.8-0.7,1.5-1.5,1.5h-6c-0.8,0-1.5-0.7-1.5-1.5V34.5H15V45c0,0.8-0.7,1.5-1.5,1.5h-6
	C6.7,46.5,6,45.8,6,45V24.9c-3.5-1.2-6-4.5-6-8.4c0-1.7,1.3-3,3-3s3,1.3,3,3c0,1.7,1.3,3,3,3H24.9z M48,9v3c0,3.3-2.7,6-6,6h-3v3.3
	l-12-4.3V3c0-1.3,1.6-2,2.6-1.1l2.6,2.6h5c1,0,2.2,0.7,2.7,1.7l0.7,1.3h6C47.3,7.5,48,8.2,48,9z M37.5,9c0-0.8-0.7-1.5-1.5-1.5
	S34.5,8.2,34.5,9c0,0.8,0.7,1.5,1.5,1.5S37.5,9.8,37.5,9z"/>

</symbol>
<symbol id="heart-fill" viewBox="0 0 48 43">
<path d="M44,4.2c-1.3-1.3-2.8-2.3-4.4-3c-1.7-0.7-3.4-1-5.2-1c-1.8,0-3.6,0.3-5.2,1c-1.7,0.7-3.2,1.7-4.4,3L24,5l-0.8-0.8
	c-2.6-2.6-6-4-9.6-4c-3.6,0-7.1,1.4-9.6,4C1.4,6.8,0,10.3,0,13.9c0,3.6,1.4,7.1,3.9,9.6l18.6,18.7c0.4,0.4,0.9,0.6,1.5,0.6
	c0.5,0,1.1-0.2,1.5-0.6l18.6-18.7c2.5-2.6,3.9-6,3.9-9.7C48,10.3,46.6,6.8,44,4.2z"/>

</symbol>
<symbol id="information" viewBox="0 0 19 48">
<g>
	<path d="M9.6,13.6c3.8,0,6.8-3,6.8-6.8c0-3.8-3-6.8-6.8-6.8C5.8,0,2.8,3,2.8,6.8C2.8,10.6,5.8,13.6,9.6,13.6z"/>
	<path d="M17.9,42.6H17c-0.9,0-1.7-0.8-1.7-1.7V17.6c0-0.3-0.2-0.6-0.4-0.8c-0.3-0.2-0.6-0.2-0.9,0L2.3,23.3
		C-1.1,25,0.5,27.1,1.8,27c1.3-0.1,5-0.4,5-0.4v14.2c0,0.9-0.8,1.7-1.7,1.7H3.3c-0.5,0-0.9,0.4-0.9,0.9v3.7c0,0.5,0.4,0.9,0.9,0.9
		h14.6c0.5,0,0.9-0.4,0.9-0.9v-3.7C18.8,42.9,18.4,42.6,17.9,42.6z"/>
</g>

</symbol>
<symbol id="male" viewBox="0 0 31 48">
<path d="M21.5,6c0,3.3-2.7,6-6,6s-6-2.7-6-6s2.7-6,6-6S21.5,2.7,21.5,6z"/>
<path d="M30,22l-7.8-7.9c-1.3-1.3-3-2.1-4.9-2.1H14c0,0,0,0,0,0c-1.9,0-3.7,0.8-5,2.1L1.3,22c-0.6,0.4-1.1,1.1-1.1,1.9
	c0,1.2,1,2.2,2.2,2.2c0.8,0,1.5-0.4,1.9-1.1l5.4-5.4V48h4.5V33h3v15h4.5V19.6l5.2,5.4c0.4,0.5,1,0.9,1.7,0.9c1.2,0,2.2-1,2.2-2.2
	C30.8,23,30.5,22.4,30,22L30,22z"/>

</symbol>
<symbol id="money-bill-wave" viewBox="0 0 48 48">
<path d="M46.6,8.9c-2.9-1.2-5.8-1.7-8.7-1.7c-9.2,0-18.5,4.7-27.7,4.7c-2.3,0-4.6-0.3-6.9-1c-0.3-0.1-0.5-0.1-0.8-0.1
	c-1.3,0-2.4,1-2.4,2.4v23.8c0,0.9,0.5,1.8,1.4,2.2c2.9,1.2,5.8,1.7,8.7,1.7c9.2,0,18.5-4.7,27.7-4.7c2.3,0,4.6,0.3,6.9,1
	c0.3,0.1,0.5,0.1,0.8,0.1c1.3,0,2.4-1,2.4-2.4V11.1C48,10.1,47.5,9.2,46.6,8.9L46.6,8.9z M3.6,14.7c1.5,0.4,3.1,0.6,4.7,0.7
	c-0.4,2.2-2.4,3.9-4.7,3.9V14.7z M3.6,36.1v-3.6c2.6,0,4.7,2,4.8,4.6C6.7,37,5.1,36.6,3.6,36.1z M24,31.2c-3.3,0-6-3.2-6-7.2
	c0-4,2.7-7.2,6-7.2s6,3.2,6,7.2C30,28,27.3,31.2,24,31.2z M44.4,33.3c-1.3-0.3-2.7-0.5-4.1-0.6c0.4-2,2.1-3.4,4.1-3.7V33.3z
	 M44.4,15.6c-2.3-0.3-4.1-2.2-4.2-4.6c1.5,0.2,2.9,0.5,4.2,0.9V15.6z"/>

</symbol>
<symbol id="pin" viewBox="0 0 48 48">
<path d="M24,0C14.8,0,7.2,7.5,7.3,16.7c0.1,3.4,1.6,6.2,2.9,8.8C10.8,26.4,24,48,24,48v0l0,0l0,0v0l14.2-22.6
	c0.9-1.5,1.7-3.9,1.7-3.9c2.7-8.8-2.3-18.1-11.1-20.8C27.3,0.2,25.6,0,24,0z M24,24c-4.7,0-8.5-3.8-8.5-8.5c0,0,0,0,0,0
	c0-4.7,3.8-8.5,8.5-8.5c4.7,0,8.5,3.8,8.5,8.5S28.7,24,24,24C24,24,24,24,24,24z"/>

</symbol></svg>