<?xml version="1.0" encoding="utf-8"?>
<!-- Generator: Adobe Illustrator 26.5.0, SVG Export Plug-In . SVG Version: 6.00 Build 0)  -->
<svg version="1.1" id="Calque_1" xmlns="http://www.w3.org/2000/svg" xmlns:xlink="http://www.w3.org/1999/xlink" x="0px" y="0px"
	 viewBox="0 0 48 48" style="enable-background:new 0 0 48 48;" xml:space="preserve">
<path d="M24.9,19.5l14.1,5V45c0,0.8-0.7,1.5-1.5,1.5h-6c-0.8,0-1.5-0.7-1.5-1.5V34.5H15V45c0,0.8-0.7,1.5-1.5,1.5h-6
	C6.7,46.5,6,45.8,6,45V24.9c-3.5-1.2-6-4.5-6-8.4c0-1.7,1.3-3,3-3s3,1.3,3,3c0,1.7,1.3,3,3,3H24.9z M48,9v3c0,3.3-2.7,6-6,6h-3v3.3
	l-12-4.3V3c0-1.3,1.6-2,2.6-1.1l2.6,2.6h5c1,0,2.2,0.7,2.7,1.7l0.7,1.3h6C47.3,7.5,48,8.2,48,9z M37.5,9c0-0.8-0.7-1.5-1.5-1.5
	S34.5,8.2,34.5,9c0,0.8,0.7,1.5,1.5,1.5S37.5,9.8,37.5,9z"/>
</svg>
