<?xml version="1.0" encoding="utf-8"?>
<!-- Generator: Adobe Illustrator 26.5.0, SVG Export Plug-In . SVG Version: 6.00 Build 0)  -->
<svg version="1.1" id="_x32_" xmlns="http://www.w3.org/2000/svg" xmlns:xlink="http://www.w3.org/1999/xlink" x="0px" y="0px"
	 viewBox="0 0 19 48" style="enable-background:new 0 0 19 48;" xml:space="preserve">
<g>
	<path d="M9.6,13.6c3.8,0,6.8-3,6.8-6.8c0-3.8-3-6.8-6.8-6.8C5.8,0,2.8,3,2.8,6.8C2.8,10.6,5.8,13.6,9.6,13.6z"/>
	<path d="M17.9,42.6H17c-0.9,0-1.7-0.8-1.7-1.7V17.6c0-0.3-0.2-0.6-0.4-0.8c-0.3-0.2-0.6-0.2-0.9,0L2.3,23.3
		C-1.1,25,0.5,27.1,1.8,27c1.3-0.1,5-0.4,5-0.4v14.2c0,0.9-0.8,1.7-1.7,1.7H3.3c-0.5,0-0.9,0.4-0.9,0.9v3.7c0,0.5,0.4,0.9,0.9,0.9
		h14.6c0.5,0,0.9-0.4,0.9-0.9v-3.7C18.8,42.9,18.4,42.6,17.9,42.6z"/>
</g>
</svg>
