<?xml version="1.0" encoding="utf-8"?>
<!-- Generator: Adobe Illustrator 26.5.0, SVG Export Plug-In . SVG Version: 6.00 Build 0)  -->
<svg version="1.1" id="Calque_1" xmlns="http://www.w3.org/2000/svg" xmlns:xlink="http://www.w3.org/1999/xlink" x="0px" y="0px"
	 viewBox="0 0 48 48" style="enable-background:new 0 0 48 48;" xml:space="preserve">
<path d="M24,0C14.8,0,7.2,7.5,7.3,16.7c0.1,3.4,1.6,6.2,2.9,8.8C10.8,26.4,24,48,24,48v0l0,0l0,0v0l14.2-22.6
	c0.9-1.5,1.7-3.9,1.7-3.9c2.7-8.8-2.3-18.1-11.1-20.8C27.3,0.2,25.6,0,24,0z M24,24c-4.7,0-8.5-3.8-8.5-8.5c0,0,0,0,0,0
	c0-4.7,3.8-8.5,8.5-8.5c4.7,0,8.5,3.8,8.5,8.5S28.7,24,24,24C24,24,24,24,24,24z"/>
</svg>
