<?xml version="1.0" encoding="utf-8"?>
<!-- Generator: Adobe Illustrator 26.5.0, SVG Export Plug-In . SVG Version: 6.00 Build 0)  -->
<svg version="1.1" id="Calque_1" xmlns="http://www.w3.org/2000/svg" xmlns:xlink="http://www.w3.org/1999/xlink" x="0px" y="0px"
	 viewBox="0 0 48 45.7" style="enable-background:new 0 0 48 45.7;" xml:space="preserve">
<path d="M47.9,17.3c-0.1-0.3-0.3-0.7-0.6-0.9c-0.3-0.2-0.6-0.4-1-0.4l-14.2-2.1L25.8,1c-0.2-0.3-0.4-0.6-0.7-0.7
	C24.7,0.1,24.4,0,24,0c-0.4,0-0.7,0.1-1,0.3c-0.3,0.2-0.6,0.4-0.7,0.7l-6.4,12.9L1.7,15.9c-0.4,0.1-0.7,0.2-1,0.4
	c-0.3,0.2-0.5,0.5-0.6,0.9C0,17.6,0,18,0.1,18.3c0.1,0.4,0.3,0.7,0.5,0.9l10.3,10L8.5,43.5c-0.1,0.4,0,0.7,0.1,1.1
	c0.1,0.3,0.4,0.6,0.7,0.9c0.3,0.2,0.7,0.3,1,0.4c0.4,0,0.7-0.1,1.1-0.2L24,38.8l12.7,6.7c0.3,0.2,0.6,0.2,0.9,0.2
	c0.4,0,0.8-0.1,1.2-0.4c0.3-0.2,0.5-0.5,0.7-0.9c0.1-0.3,0.2-0.7,0.1-1.1l-2.5-14.2l10.3-10c0.3-0.3,0.4-0.6,0.5-0.9
	S48,17.6,47.9,17.3z"/>
</svg>
